<svg xmlns="http://www.w3.org/2000/svg" version="1.1" xmlns:xlink="http://www.w3.org/1999/xlink" viewBox="0 0 200 200" width="200" height="200"><metadata><rdf:RDF xmlns:rdf="http://www.w3.org/1999/02/22-rdf-syntax-ns#" xmlns:dc="http://purl.org/dc/elements/1.1/"><rdf:Description><dc:creator>RealFaviconGenerator</dc:creator><dc:source>https://realfavicongenerator.net</dc:source></rdf:Description></rdf:RDF></metadata><rect width="200" height="200" fill="url('#gradient')"></rect><defs><linearGradient id="gradient" gradientTransform="rotate(45 0.5 0.5)"><stop offset="0%" stop-color="#000000"></stop><stop offset="100%" stop-color="#000000"></stop></linearGradient></defs><g><g fill="#ffffff" transform="matrix(6.3116835326586935,0,0,6.3116835326586935,26.243525733022153,144.52959047359616)" stroke="#ffffff" stroke-width="0"><path d="M1.07-14.22L5.58-14.22L8.75-4.33L11.91-14.22L16.43-14.22L16.43 0L12.99 0L12.99-3.32L13.32-10.12L9.88 0L7.62 0L4.17-10.13L4.50-3.32L4.50 0L1.07 0L1.07-14.22ZM20.49-3.19L20.49-3.19Q21.27-3.19 21.79-2.73Q22.30-2.27 22.30-1.54Q22.30-0.82 21.79-0.36Q21.27 0.11 20.49 0.11L20.49 0.11Q19.70 0.11 19.18-0.36Q18.67-0.83 18.67-1.54Q18.67-2.26 19.18-2.72Q19.70-3.19 20.49-3.19Z"></path></g></g></svg>